<svg width="434" height="438" viewBox="0 0 434 438" fill="none" xmlns="http://www.w3.org/2000/svg">
<path d="M182 259.43V177H206.64C214.93 177 221.98 178.23 227.81 180.7C233.63 183.16 238.32 186.45 241.87 190.56C245.42 194.67 248.01 199.26 249.65 204.34C251.29 209.42 252.11 214.53 252.11 219.68C252.11 225.8 251.01 231.31 248.81 236.2C246.61 241.09 243.6 245.27 239.79 248.74C235.98 252.21 231.58 254.86 226.57 256.69C221.57 258.52 216.27 259.43 210.67 259.43H182ZM198.24 243.75H207.87C211.98 243.75 215.71 243.21 219.07 242.13C222.43 241.05 225.32 239.46 227.75 237.37C230.18 235.28 232.04 232.65 233.35 229.47C234.66 226.3 235.31 222.66 235.31 218.55C235.31 213.17 234.43 208.79 232.68 205.39C230.92 201.99 228.76 199.36 226.18 197.49C223.6 195.62 220.97 194.34 218.28 193.63C215.59 192.92 213.31 192.57 211.45 192.57H198.23V243.75H198.24Z" fill="white"/>
<path d="M211.68 0L220.53 1.14L229.05 41L227.83 40.33L241.33 15.57L243.5 26.38L225.38 56.64L211.68 0ZM236.82 3.24L244.39 4.21L254.27 43.59L252.81 43.11L270.17 7.52L278.31 8.57L251.1 59.8L236.81 3.24H236.82Z" fill="white"/>
<path d="M332.02 34.36L359.76 54.61L355.39 60.6L333.88 44.89L325.09 56.93L344.22 70.9L339.85 76.89L320.72 62.92L311.8 75.13L334.13 91.43L329.76 97.42L301.21 76.57L332.04 34.35L332.02 34.36Z" fill="white"/>
<path d="M405.22 110.7C407.84 115.28 408.97 119.43 408.61 123.15C408.25 126.87 406.13 129.84 402.26 132.05C399.76 133.48 397.29 134.13 394.84 134.01C392.39 133.89 390.1 133.1 387.97 131.64C385.83 130.18 383.92 128.11 382.22 125.43L385.21 122.39C386.96 125.65 388.05 128.83 388.47 131.93C388.89 135.03 388.62 137.84 387.65 140.36C386.68 142.88 384.95 144.85 382.45 146.28C380.16 147.59 377.94 148.29 375.81 148.38C373.68 148.47 371.69 148.08 369.84 147.23C368 146.38 366.32 145.18 364.8 143.64C363.28 142.1 361.97 140.35 360.85 138.4L352.95 124.59L398.32 98.64L405.22 110.7ZM366.86 134.55C367.79 136.17 368.87 137.51 370.1 138.54C371.33 139.58 372.65 140.2 374.07 140.41C375.49 140.62 376.95 140.3 378.45 139.44C380.12 138.49 381.16 137.29 381.59 135.86C382.01 134.43 382.03 132.9 381.62 131.28C381.22 129.66 380.59 128.1 379.73 126.6L376.08 120.22L362.96 127.73L366.86 134.54V134.55ZM386.28 123.11C387.61 125.44 389.26 126.77 391.21 127.09C393.16 127.41 395.06 127.05 396.89 126C399.14 124.71 400.38 123.08 400.6 121.1C400.82 119.12 400.28 116.98 398.97 114.69L395.72 109L382.53 116.54L386.28 123.1V123.11Z" fill="white"/>
<path d="M382.58 235.47L433.65 246.62L430.55 260.83C429.44 265.89 427.73 270.04 425.4 273.27C423.07 276.5 420.41 278.92 417.4 280.55C414.39 282.18 411.23 283.16 407.91 283.49C404.59 283.82 401.37 283.65 398.22 282.96C394.42 282.13 391.15 280.7 388.39 278.68C385.64 276.65 383.43 274.23 381.76 271.41C380.09 268.59 379.01 265.53 378.53 262.23C378.05 258.93 378.18 255.57 378.93 252.15L382.57 235.48L382.58 235.47ZM388.18 244.58L386.49 252.32C385.89 255.09 385.73 257.72 386.02 260.21C386.31 262.71 387.04 264.98 388.22 267.03C389.39 269.08 391 270.82 393.05 272.25C395.1 273.68 397.57 274.71 400.48 275.35C403.62 276.04 406.47 276.1 409.02 275.56C411.57 275.01 413.8 274.04 415.7 272.63C417.6 271.23 419.15 269.54 420.34 267.56C421.53 265.58 422.37 263.5 422.85 261.29L424.75 252.57L388.17 244.58H388.18Z" fill="white"/>
<path d="M398.13 340.89L376.92 367.9L371.09 363.32L387.54 342.36L375.82 333.16L361.19 351.79L355.36 347.21L369.99 328.58L358.1 319.24L341.03 340.99L335.2 336.41L357.03 308.6L398.15 340.88L398.13 340.89Z" fill="white"/>
<path d="M326.87 407.66L292.97 377.61L297.25 376.35L301.63 420.3L293.52 424.36L289.8 365.02L335.04 403.56L326.87 407.66Z" fill="white"/>
<path d="M238.02 436.48L203.68 437.21L203.52 429.8L230.15 429.23L229.83 414.33L206.15 414.84L205.99 407.43L229.67 406.92L229.35 391.8L201.71 392.39L201.55 384.98L236.89 384.22L238.01 436.48H238.02Z" fill="white"/>
<path d="M146.22 425.62L139.13 422.61L156.65 381.32L132.59 371.11L135.49 364.28L166.64 377.5L146.22 425.62Z" fill="white"/>
<path d="M89.89 364.68C87.17 367.03 84.14 368.74 80.81 369.81C77.48 370.88 74.07 371.3 70.58 371.08C67.09 370.86 63.76 370 60.58 368.49C57.41 366.98 54.61 364.83 52.19 362.03C49.81 359.27 48.1 356.21 47.06 352.85C46.03 349.49 45.64 346.05 45.9 342.53C46.16 339.01 47.05 335.67 48.57 332.52C50.09 329.36 52.22 326.61 54.94 324.25C57.74 321.83 60.81 320.1 64.15 319.05C67.49 318 70.9 317.61 74.37 317.88C77.84 318.15 81.15 319.06 84.3 320.62C87.45 322.18 90.22 324.34 92.61 327.1C95.03 329.9 96.78 332.95 97.86 336.26C98.95 339.57 99.37 342.95 99.14 346.38C98.91 349.82 98.01 353.11 96.45 356.27C94.89 359.42 92.7 362.23 89.87 364.67L89.89 364.68ZM84.71 358.69C86.74 356.93 88.32 354.92 89.44 352.65C90.56 350.38 91.21 348.02 91.41 345.57C91.61 343.12 91.33 340.71 90.58 338.34C89.83 335.97 88.6 333.79 86.87 331.79C85.18 329.83 83.22 328.32 81 327.25C78.78 326.19 76.45 325.58 74.01 325.44C71.57 325.3 69.16 325.62 66.77 326.42C64.38 327.22 62.17 328.49 60.14 330.25C58.11 332.01 56.53 334.02 55.41 336.29C54.29 338.56 53.62 340.91 53.39 343.37C53.16 345.82 53.41 348.24 54.14 350.62C54.87 353 56.08 355.18 57.77 357.14C59.53 359.17 61.53 360.71 63.76 361.76C66 362.81 68.35 363.4 70.83 363.55C73.3 363.7 75.74 363.35 78.13 362.52C80.52 361.69 82.72 360.41 84.71 358.69Z" fill="white"/>
<path d="M6.63003 273.99C5.66003 270.23 5.47003 266.84 6.05003 263.84C6.64003 260.84 7.93003 258.32 9.94003 256.29C11.94 254.26 14.64 252.81 18.03 251.93C20.03 251.41 22.08 251.21 24.19 251.31C26.3 251.41 28.32 251.91 30.27 252.83C32.22 253.74 33.95 255.16 35.46 257.1C36.98 259.04 38.14 261.56 38.94 264.68L40.85 272.07L58.91 267.41L60.84 274.87L10.23 287.94L6.63003 274V273.99ZM31.77 266.53C31.29 264.67 30.57 263.2 29.62 262.1C28.67 261.01 27.61 260.23 26.45 259.76C25.29 259.29 24.15 259.04 23.02 259.01C21.9 258.98 20.92 259.07 20.08 259.29C19.15 259.53 18.2 259.94 17.23 260.51C16.26 261.08 15.42 261.83 14.69 262.77C13.96 263.7 13.47 264.85 13.2 266.2C12.93 267.56 13.03 269.14 13.5 270.96L15.48 278.63L33.67 273.93L31.76 266.54L31.77 266.53Z" fill="white"/>
<path d="M0 200.05L5.58 166.16L12.9 167.37L8.57 193.66L23.28 196.08L27.13 172.71L34.45 173.92L30.6 197.29L45.52 199.75L50.01 172.47L57.33 173.68L51.59 208.56L0 200.05Z" fill="white"/>
<path d="M35.8 99.6C37.34 97.34 39.06 95.45 40.99 93.94C42.91 92.43 44.91 91.38 47 90.79C49.08 90.2 51.23 90.09 53.44 90.46C55.65 90.83 57.87 91.77 60.1 93.28C61.81 94.44 63.32 95.84 64.64 97.49C65.96 99.14 66.9 101 67.47 103.06C68.04 105.13 68.1 107.37 67.65 109.79C67.2 112.21 66.03 114.81 64.15 117.59L59.87 123.91L75.37 134.41L71.05 140.79L27.78 111.46L35.82 99.6H35.8ZM57.98 113.59C59.08 111.96 59.75 110.43 59.97 108.98C60.19 107.54 60.13 106.25 59.77 105.1C59.41 103.96 58.87 102.96 58.16 102.09C57.44 101.23 56.66 100.51 55.83 99.95C55.04 99.41 54.11 98.98 53.06 98.64C52.01 98.31 50.88 98.18 49.67 98.25C48.46 98.33 47.24 98.71 46.03 99.39C44.81 100.07 43.69 101.17 42.67 102.68L38.23 109.24L53.79 119.78L57.99 113.58L57.98 113.59ZM66.64 108.76L92.11 109.67L87.1 117.06L61.68 116.45L66.63 108.76H66.64Z" fill="white"/>
<path d="M126.71 59.08L138.62 52.95L141.58 58.71L129.67 64.84L126.7 59.08H126.71Z" fill="white"/>
</svg>
