<svg width="125" height="125" viewBox="0 0 125 125" fill="none" xmlns="http://www.w3.org/2000/svg">
<circle cx="62.5" cy="62.5" r="62.5" fill="white"/>
<path d="M44.89 84V38.368H58.53C63.118 38.368 67.024 39.05 70.248 40.414C73.472 41.778 76.0553 43.5967 77.998 45.87C79.982 48.1433 81.4287 50.6853 82.338 53.496C83.2473 56.3067 83.702 59.138 83.702 61.99C83.702 65.3793 83.082 68.438 81.842 71.166C80.6433 73.8527 78.99 76.1673 76.882 78.11C74.774 80.0113 72.3353 81.4787 69.566 82.512C66.7967 83.504 63.862 84 60.762 84H44.89ZM53.88 75.32H59.212C61.4853 75.32 63.552 75.0307 65.412 74.452C67.272 73.832 68.8633 72.9433 70.186 71.786C71.55 70.6287 72.5833 69.182 73.286 67.446C74.03 65.6687 74.402 63.6433 74.402 61.37C74.402 58.394 73.906 55.976 72.914 54.116C71.9633 52.2147 70.7647 50.7473 69.318 49.714C67.9127 48.6807 66.466 47.978 64.978 47.606C63.49 47.1927 62.2293 46.986 61.196 46.986H53.88V75.32Z" fill="black"/>
</svg>
