<svg width="164" height="40" viewBox="0 0 164 40" fill="none" xmlns="http://www.w3.org/2000/svg">
<circle cx="20" cy="20" r="20" fill="#FAF0CA"/>
<path d="M12.66 30V9.392H18.82C20.892 9.392 22.656 9.7 24.112 10.316C25.568 10.932 26.7347 11.7533 27.612 12.78C28.508 13.8067 29.1613 14.9547 29.572 16.224C29.9827 17.4933 30.188 18.772 30.188 20.06C30.188 21.5907 29.908 22.972 29.348 24.204C28.8067 25.4173 28.06 26.4627 27.108 27.34C26.156 28.1987 25.0547 28.8613 23.804 29.328C22.5533 29.776 21.228 30 19.828 30H12.66ZM16.72 26.08H19.128C20.1547 26.08 21.088 25.9493 21.928 25.688C22.768 25.408 23.4867 25.0067 24.084 24.484C24.7 23.9613 25.1667 23.308 25.484 22.524C25.82 21.7213 25.988 20.8067 25.988 19.78C25.988 18.436 25.764 17.344 25.316 16.504C24.8867 15.6453 24.3453 14.9827 23.692 14.516C23.0573 14.0493 22.404 13.732 21.732 13.564C21.06 13.3773 20.4907 13.284 20.024 13.284H16.72V26.08Z" fill="white"/>
<path d="M55.904 9.392C57.192 9.392 58.34 9.56 59.348 9.896C60.356 10.2133 61.196 10.68 61.868 11.296C62.5587 11.8933 63.0813 12.6213 63.436 13.48C63.7907 14.32 63.968 15.272 63.968 16.336C63.968 17.176 63.8373 18.016 63.576 18.856C63.3333 19.696 62.9227 20.4613 62.344 21.152C61.784 21.8427 61.0373 22.4027 60.104 22.832C59.1707 23.2427 58.0133 23.448 56.632 23.448H53.72V30H49.66V9.392H55.904ZM56.604 19.528C57.22 19.528 57.7333 19.4253 58.144 19.22C58.5547 19.0147 58.872 18.7533 59.096 18.436C59.3387 18.1187 59.5067 17.792 59.6 17.456C59.712 17.1013 59.768 16.7747 59.768 16.476C59.768 16.252 59.7307 15.972 59.656 15.636C59.6 15.2813 59.4693 14.9267 59.264 14.572C59.0587 14.2173 58.7413 13.9187 58.312 13.676C57.9013 13.4333 57.3413 13.312 56.632 13.312H53.72V19.528H56.604ZM60.412 22.048L65.508 30H60.776L55.568 22.16L60.412 22.048ZM73.3633 30.336C72.2246 30.336 71.1886 30.112 70.2553 29.664C69.3406 29.1973 68.6126 28.488 68.0713 27.536C67.53 26.584 67.2593 25.3707 67.2593 23.896C67.2593 22.5147 67.5393 21.32 68.0993 20.312C68.6593 19.304 69.3966 18.5293 70.3113 17.988C71.226 17.428 72.1966 17.148 73.2233 17.148C74.4366 17.148 75.3513 17.3533 75.9673 17.764C76.602 18.156 77.1246 18.5947 77.5353 19.08L77.3673 19.556L77.7313 17.764H81.3713V30H77.4513V27.34L77.7593 28.18C77.722 28.18 77.61 28.292 77.4233 28.516C77.2366 28.7213 76.9566 28.9733 76.5833 29.272C76.2286 29.552 75.7806 29.7947 75.2393 30C74.7166 30.224 74.0913 30.336 73.3633 30.336ZM74.4833 27.144C74.95 27.144 75.37 27.0787 75.7433 26.948C76.1166 26.7987 76.4433 26.5933 76.7233 26.332C77.0033 26.052 77.246 25.7067 77.4513 25.296V22.3C77.302 21.8893 77.078 21.544 76.7793 21.264C76.4806 20.9653 76.126 20.7413 75.7153 20.592C75.3046 20.424 74.8473 20.34 74.3433 20.34C73.7833 20.34 73.2606 20.4893 72.7753 20.788C72.3086 21.068 71.9353 21.46 71.6553 21.964C71.3753 22.468 71.2353 23.0467 71.2353 23.7C71.2353 24.3533 71.3846 24.9413 71.6833 25.464C71.982 25.9867 72.374 26.3973 72.8593 26.696C73.3633 26.9947 73.9046 27.144 74.4833 27.144ZM91.0105 30.252L83.6745 17.764H88.3225L92.4945 26.22L90.0865 26.136L93.6985 17.764H98.0665L91.1225 30.252H91.0105ZM112.016 14.376C111.232 13.9467 110.429 13.592 109.608 13.312C108.805 13.032 108.049 12.892 107.34 12.892C106.462 12.892 105.772 13.0693 105.268 13.424C104.764 13.7787 104.512 14.3107 104.512 15.02C104.512 15.5053 104.698 15.944 105.072 16.336C105.464 16.7093 105.958 17.0453 106.556 17.344C107.172 17.6427 107.806 17.9133 108.46 18.156C109.057 18.38 109.645 18.6507 110.224 18.968C110.821 19.2667 111.353 19.6493 111.82 20.116C112.286 20.564 112.66 21.1333 112.94 21.824C113.22 22.496 113.36 23.3267 113.36 24.316C113.36 25.3613 113.089 26.332 112.548 27.228C112.006 28.124 111.213 28.852 110.168 29.412C109.122 29.9533 107.834 30.224 106.304 30.224C105.52 30.224 104.717 30.1493 103.896 30C103.093 29.832 102.3 29.5893 101.516 29.272C100.732 28.936 99.9756 28.516 99.2476 28.012L101.04 24.848C101.525 25.2027 102.048 25.52 102.608 25.8C103.186 26.0613 103.765 26.2667 104.344 26.416C104.922 26.5653 105.454 26.64 105.94 26.64C106.425 26.64 106.91 26.5747 107.396 26.444C107.9 26.2947 108.31 26.052 108.628 25.716C108.964 25.38 109.132 24.9133 109.132 24.316C109.132 23.9053 108.992 23.532 108.712 23.196C108.45 22.86 108.086 22.552 107.62 22.272C107.172 21.992 106.677 21.7493 106.136 21.544C105.501 21.3013 104.848 21.0213 104.176 20.704C103.504 20.3867 102.869 20.004 102.272 19.556C101.693 19.0893 101.217 18.52 100.844 17.848C100.489 17.1573 100.312 16.3173 100.312 15.328C100.312 14.1333 100.573 13.0973 101.096 12.22C101.637 11.3427 102.393 10.652 103.364 10.148C104.334 9.62533 105.454 9.336 106.724 9.28C108.385 9.28 109.729 9.476 110.756 9.868C111.801 10.26 112.734 10.7267 113.556 11.268L112.016 14.376ZM116.692 30V7.908H120.528V20.228L120.5 19.752C120.929 18.9867 121.536 18.3707 122.32 17.904C123.104 17.4187 124.065 17.176 125.204 17.176C126.361 17.176 127.322 17.5213 128.088 18.212C128.872 18.884 129.273 19.7613 129.292 20.844V30H125.372V22.3C125.353 21.7587 125.204 21.3293 124.924 21.012C124.662 20.676 124.214 20.508 123.58 20.508C122.982 20.508 122.46 20.704 122.012 21.096C121.564 21.488 121.218 22.02 120.976 22.692C120.733 23.364 120.612 24.1387 120.612 25.016V30H116.692ZM132.365 23.728C132.365 22.4773 132.654 21.3573 133.233 20.368C133.83 19.3787 134.661 18.604 135.725 18.044C136.789 17.4653 138.011 17.176 139.393 17.176C140.793 17.176 142.006 17.4653 143.033 18.044C144.059 18.604 144.843 19.3787 145.385 20.368C145.945 21.3573 146.225 22.4773 146.225 23.728C146.225 24.9787 145.945 26.108 145.385 27.116C144.843 28.1053 144.059 28.8893 143.033 29.468C142.006 30.0467 140.774 30.336 139.337 30.336C137.993 30.336 136.789 30.0747 135.725 29.552C134.679 29.0293 133.858 28.2733 133.261 27.284C132.663 26.2947 132.365 25.1093 132.365 23.728ZM136.313 23.756C136.313 24.3907 136.443 24.9693 136.705 25.492C136.966 25.996 137.321 26.3973 137.769 26.696C138.217 26.9947 138.721 27.144 139.281 27.144C139.897 27.144 140.429 26.9947 140.877 26.696C141.325 26.3973 141.67 25.996 141.913 25.492C142.155 24.9693 142.277 24.3907 142.277 23.756C142.277 23.1027 142.155 22.524 141.913 22.02C141.67 21.516 141.325 21.1147 140.877 20.816C140.429 20.5173 139.897 20.368 139.281 20.368C138.721 20.368 138.217 20.5173 137.769 20.816C137.321 21.1147 136.966 21.516 136.705 22.02C136.443 22.524 136.313 23.1027 136.313 23.756ZM154.503 30.252L147.167 17.764H151.815L155.987 26.22L153.579 26.136L157.191 17.764H161.559L154.615 30.252H154.503Z" fill="white"/>
</svg>
