<svg width="40" height="40" viewBox="0 0 40 40" fill="none" xmlns="http://www.w3.org/2000/svg">
<circle cx="20" cy="20" r="20" fill="#FAF0CA"/>
<path d="M12.66 30V9.392H18.82C20.892 9.392 22.656 9.7 24.112 10.316C25.568 10.932 26.7347 11.7533 27.612 12.78C28.508 13.8067 29.1613 14.9547 29.572 16.224C29.9827 17.4933 30.188 18.772 30.188 20.06C30.188 21.5907 29.908 22.972 29.348 24.204C28.8067 25.4173 28.06 26.4627 27.108 27.34C26.156 28.1987 25.0547 28.8613 23.804 29.328C22.5533 29.776 21.228 30 19.828 30H12.66ZM16.72 26.08H19.128C20.1547 26.08 21.088 25.9493 21.928 25.688C22.768 25.408 23.4867 25.0067 24.084 24.484C24.7 23.9613 25.1667 23.308 25.484 22.524C25.82 21.7213 25.988 20.8067 25.988 19.78C25.988 18.436 25.764 17.344 25.316 16.504C24.8867 15.6453 24.3453 14.9827 23.692 14.516C23.0573 14.0493 22.404 13.732 21.732 13.564C21.06 13.3773 20.4907 13.284 20.024 13.284H16.72V26.08Z" fill="#0D3B66"/>
</svg>
